<svg viewBox="0 0 1200 1600" xmlns="http://www.w3.org/2000/svg">
  <!-- Admin Dashboard (0-800) -->
  <g transform="translate(0,0)">
    <!-- Admin Header -->
    <rect x="0" y="0" width="1200" height="60" fill="#1976d2"/>
    <rect x="0" y="60" width="250" height="740" fill="#263238"/>
    
    <!-- System Metrics -->
    <rect x="270" y="80" width="880" height="200" fill="#e3f2fd" rx="4"/>
    
    <!-- Recent Activity -->
    <rect x="270" y="300" width="420" height="440" fill="#ffffff"/>
    
    <!-- System Alerts -->
    <rect x="710" y="300" width="440" height="440" fill="#ffffff"/>
  </g>

  <!-- User Management (800-1600) -->
  <g transform="translate(0,800)">
    <!-- Admin Header -->
    <rect x="0" y="0" width="1200" height="60" fill="#1976d2"/>
    <rect x="0" y="60" width="250" height="740" fill="#263238"/>
    
    <!-- User Search & Filters -->
    <rect x="270" y="80" width="880" height="60" fill="#e3f2fd" rx="4"/>
    
    <!-- User List -->
    <rect x="270" y="160" width="880" height="500" fill="#ffffff"/>
    <rect x="290" y="180" width="840" height="60" fill="#f5f5f5" rx="4"/>
    <rect x="290" y="250" width="840" height="60" fill="#f5f5f5" rx="4"/>
    <rect x="290" y="320" width="840" height="60" fill="#f5f5f5" rx="4"/>
    
    <!-- Action Bar -->
    <rect x="270" y="680" width="880" height="60" fill="#e3f2fd" rx="4"/>
  </g>
</svg>
