<svg viewBox="0 0 1200 800" xmlns="http://www.w3.org/2000/svg">
  <!-- Header & Navigation -->
  <rect x="0" y="0" width="1200" height="60" fill="#1976d2"/>
  <text x="40" y="35" fill="#ffffff" font-family="Arial" font-size="14">Portfolio: Growth Strategy</text>
  
  <!-- Portfolio Header -->
  <rect x="0" y="60" width="1200" height="100" fill="#f5f5f5"/>
  <text x="40" y="100" fill="#333333" font-family="Arial" font-size="24">Growth Strategy</text>
  <text x="40" y="130" fill="#666666" font-family="Arial" font-size="14">Created: Jan 2024 | Currency: EUR</text>
  
  <!-- Tab Navigation -->
  <rect x="0" y="160" width="1200" height="50" fill="#ffffff"/>
  <rect x="40" y="160" width="100" height="50" fill="#1976d2"/>
  <text x="70" y="190" fill="#ffffff" font-family="Arial" font-size="14">Vue</text>
  <text x="170" y="190" fill="#666666" font-family="Arial" font-size="14">Positions</text>
  <text x="270" y="190" fill="#666666" font-family="Arial" font-size="14">Transactions</text>
  <text x="370" y="190" fill="#666666" font-family="Arial" font-size="14">Analyse</text>
  
  <!-- Main Content -->
  <!-- KPIs -->
  <rect x="40" y="230" width="250" height="100" fill="#ffffff" rx="4"/>
  <text x="60" y="260" fill="#666666" font-family="Arial" font-size="14">Valeur</text>
  <text x="60" y="290" fill="#333333" font-family="Arial" font-size="20">€75,000</text>
  
  <rect x="310" y="230" width="250" height="100" fill="#ffffff" rx="4"/>
  <text x="330" y="260" fill="#666666" font-family="Arial" font-size="14">Performance YTD</text>
  <text x="330" y="290" fill="#4caf50" font-family="Arial" font-size="20">+15.3%</text>
  
  <rect x="580" y="230" width="250" height="100" fill="#ffffff" rx="4"/>
  <text x="600" y="260" fill="#666666" font-family="Arial" font-size="14">Cash</text>
  <text x="600" y="290" fill="#333333" font-family="Arial" font-size="20">€5,000</text>
  
  <!-- Charts -->
  <rect x="40" y="350" width="550" height="300" fill="#ffffff" rx="4"/>
  <text x="60" y="380" fill="#333333" font-family="Arial" font-size="16">Evolution de la valeur</text>
  
  <rect x="610" y="350" width="550" height="300" fill="#ffffff" rx="4"/>
  <text x="630" y="380" fill="#333333" font-family="Arial" font-size="16">Répartition par catégorie</text>
  
  <!-- Recent Activity -->
  <rect x="40" y="670" width="1120" height="110" fill="#ffffff" rx="4"/>
  <text x="60" y="700" fill="#333333" font-family="Arial" font-size="16">Activité récente</text>
</svg>
