<svg viewBox="0 0 1200 800" xmlns="http://www.w3.org/2000/svg">
  <!-- Header -->
  <rect x="0" y="0" width="1200" height="60" fill="#1976d2"/>
  <rect x="20" y="15" width="100" height="30" fill="#ffffff" opacity="0.9"/>
  <text x="40" y="35" fill="#1976d2" font-family="Arial" font-size="14">LOGO</text>
  
  <!-- Navigation -->
  <rect x="150" y="15" width="400" height="30" fill="#ffffff" opacity="0.2"/>
  <text x="170" y="35" fill="#ffffff" font-family="Arial" font-size="14">Dashboard | Portfolios | Watchlists | Alerts</text>
  
  <!-- User Menu -->
  <circle cx="1150" cy="30" r="20" fill="#ffffff" opacity="0.9"/>
  <text x="1140" y="35" fill="#1976d2" font-family="Arial" font-size="14">U</text>
  
  <!-- Sidebar -->
  <rect x="0" y="60" width="250" height="740" fill="#f5f5f5"/>
  <rect x="20" y="80" width="210" height="40" fill="#ffffff"/>
  <rect x="20" y="130" width="210" height="40" fill="#ffffff"/>
  <rect x="20" y="180" width="210" height="40" fill="#ffffff"/>
  
  <!-- Main Content Area -->
  <rect x="250" y="60" width="950" height="740" fill="#ffffff"/>
  
  <!-- Dashboard Cards -->
  <rect x="270" y="80" width="280" height="150" fill="#e3f2fd" rx="4"/>
  <rect x="570" y="80" width="280" height="150" fill="#e3f2fd" rx="4"/>
  <rect x="870" y="80" width="280" height="150" fill="#e3f2fd" rx="4"/>
  
  <!-- Chart Area -->
  <rect x="270" y="250" width="880" height="250" fill="#e3f2fd" rx="4"/>
  
  <!-- Data Table -->
  <rect x="270" y="520" width="880" height="260" fill="#e3f2fd" rx="4"/>
</svg>
