<svg viewBox="0 0 1200 1600" xmlns="http://www.w3.org/2000/svg">
  <!-- Watchlist View (0-800) -->
  <g transform="translate(0,0)">
    <!-- Standard Header & Sidebar -->
    <rect x="0" y="0" width="1200" height="60" fill="#1976d2"/>
    <rect x="0" y="60" width="250" height="740" fill="#f5f5f5"/>
    
    <!-- Watchlists Grid -->
    <rect x="270" y="80" width="420" height="660" fill="#ffffff"/>
    <rect x="290" y="100" width="380" height="100" fill="#e3f2fd" rx="4"/>
    <rect x="290" y="210" width="380" height="100" fill="#e3f2fd" rx="4"/>
    
    <!-- Selected Watchlist Detail -->
    <rect x="710" y="80" width="440" height="660" fill="#f5f5f5"/>
    <rect x="730" y="100" width="400" height="400" fill="#ffffff" rx="4"/>
    <rect x="730" y="520" width="400" height="200" fill="#ffffff" rx="4"/>
  </g>

  <!-- Alerts View (800-1600) -->
  <g transform="translate(0,800)">
    <!-- Standard Header & Sidebar -->
    <rect x="0" y="0" width="1200" height="60" fill="#1976d2"/>
    <rect x="0" y="60" width="250" height="740" fill="#f5f5f5"/>
    
    <!-- Alert Categories -->
    <rect x="270" y="80" width="880" height="60" fill="#e3f2fd" rx="4"/>
    
    <!-- Active Alerts -->
    <rect x="270" y="160" width="420" height="580" fill="#ffffff"/>
    <rect x="290" y="180" width="380" height="80" fill="#fff3e0" rx="4"/>
    <rect x="290" y="270" width="380" height="80" fill="#e8f5e9" rx="4"/>
    <rect x="290" y="360" width="380" height="80" fill="#e3f2fd" rx="4"/>
    
    <!-- Alert Configuration -->
    <rect x="710" y="160" width="440" height="580" fill="#f5f5f5"/>
    <rect x="730" y="180" width="400" height="540" fill="#ffffff" rx="4"/>
  </g>
</svg>
