<svg viewBox="0 0 1200 800" xmlns="http://www.w3.org/2000/svg">
  <!-- Header -->
  <rect x="0" y="0" width="1200" height="60" fill="#1976d2"/>
  
  <!-- Toolbar -->
  <rect x="0" y="60" width="1200" height="60" fill="#f5f5f5"/>
  <rect x="40" y="70" width="120" height="40" fill="#1976d2" rx="4"/>
  <text x="70" y="95" fill="#ffffff" font-family="Arial" font-size="14">Ajouter</text>
  
  <!-- Filters -->
  <rect x="180" y="70" width="120" height="40" fill="#ffffff" rx="4"/>
  <text x="210" y="95" fill="#666666" font-family="Arial" font-size="14">Filtres</text>
  
  <!-- Positions Table -->
  <rect x="40" y="140" width="1120" height="640" fill="#ffffff" rx="4"/>
  
  <!-- Table Header -->
  <rect x="40" y="140" width="1120" height="50" fill="#f5f5f5"/>
  <text x="60" y="170" fill="#666666" font-family="Arial" font-size="14">Symbole</text>
  <text x="200" y="170" fill="#666666" font-family="Arial" font-size="14">Quantité</text>
  <text x="340" y="170" fill="#666666" font-family="Arial" font-size="14">Prix Moyen</text>
  <text x="480" y="170" fill="#666666" font-family="Arial" font-size="14">Prix Actuel</text>
  <text x="620" y="170" fill="#666666" font-family="Arial" font-size="14">Valeur</text>
  <text x="760" y="170" fill="#666666" font-family="Arial" font-size="14">P/L</text>
  <text x="900" y="170" fill="#666666" font-family="Arial" font-size="14">% Portfolio</text>
  <text x="1040" y="170" fill="#666666" font-family="Arial" font-size="14">Actions</text>
  
  <!-- Table Rows (example) -->
  <rect x="40" y="190" width="1120" height="50" fill="#ffffff"/>
  <text x="60" y="220" fill="#333333" font-family="Arial" font-size="14">AAPL</text>
  <text x="200" y="220" fill="#333333" font-family="Arial" font-size="14">100</text>
  <text x="340" y="220" fill="#333333" font-family="Arial" font-size="14">150.00</text>
  <text x="480" y="220" fill="#333333" font-family="Arial" font-size="14">165.50</text>
  <text x="620" y="220" fill="#333333" font-family="Arial" font-size="14">16,550</text>
  <text x="760" y="220" fill="#4caf50" font-family="Arial" font-size="14">+10.33%</text>
  <text x="900" y="220" fill="#333333" font-family="Arial" font-size="14">22%</text>
</svg>
